<mxfile host="app.diagrams.net" modified="2023-11-09T16:47:21.575Z" agent="Mozilla/5.0 (Windows NT 10.0; Win64; x64) AppleWebKit/537.36 (KHTML, like Gecko) Chrome/119.0.0.0 Safari/537.36" etag="18ez2lVAZEsb6auKKlEU" version="22.1.0" type="device">
  <diagram name="Página-1" id="968DlaEVARr_aiG5nSL3">
    <mxGraphModel dx="2117" dy="597" grid="1" gridSize="10" guides="1" tooltips="1" connect="1" arrows="1" fold="1" page="1" pageScale="1" pageWidth="827" pageHeight="1169" math="0" shadow="0">
      <root>
        <mxCell id="0" />
        <mxCell id="1" parent="0" />
        <mxCell id="DXzAuBaK7Yp7YgB7Ne8J-1" value="" style="rounded=0;whiteSpace=wrap;html=1;fillColor=#ffe6cc;strokeColor=#d79b00;" parent="1" vertex="1">
          <mxGeometry x="30" y="20" width="410" height="160" as="geometry" />
        </mxCell>
        <mxCell id="h4uUW1XpscnIHp1KI2hc-1" value="PROFESOR(&lt;font color=&quot;#ff0000&quot;&gt;&lt;u&gt;codProfesor,&lt;/u&gt; &lt;i style=&quot;&quot;&gt;codCurso&lt;/i&gt;&lt;/font&gt;)" style="text;html=1;strokeColor=none;fillColor=none;align=center;verticalAlign=middle;whiteSpace=wrap;rounded=0;" parent="1" vertex="1">
          <mxGeometry x="55" y="60" width="220" height="30" as="geometry" />
        </mxCell>
        <mxCell id="h4uUW1XpscnIHp1KI2hc-3" value="CURSO(&lt;font color=&quot;#ff0000&quot;&gt;&lt;u&gt;codCurso&lt;/u&gt;&lt;/font&gt;)" style="text;html=1;strokeColor=none;fillColor=none;align=center;verticalAlign=middle;whiteSpace=wrap;rounded=0;" parent="1" vertex="1">
          <mxGeometry x="80" y="130" width="60" height="30" as="geometry" />
        </mxCell>
        <mxCell id="h4uUW1XpscnIHp1KI2hc-8" value="" style="rounded=0;whiteSpace=wrap;html=1;fillColor=#ffe6cc;strokeColor=#d79b00;" parent="1" vertex="1">
          <mxGeometry x="30" y="220" width="410" height="160" as="geometry" />
        </mxCell>
        <mxCell id="h4uUW1XpscnIHp1KI2hc-9" value="ALUMNO(&lt;font color=&quot;#ff0000&quot;&gt;&lt;u&gt;codAlumno&lt;/u&gt;&lt;/font&gt;)" style="text;html=1;strokeColor=none;fillColor=none;align=center;verticalAlign=middle;whiteSpace=wrap;rounded=0;" parent="1" vertex="1">
          <mxGeometry x="-25" y="240" width="310" height="30" as="geometry" />
        </mxCell>
        <mxCell id="h4uUW1XpscnIHp1KI2hc-10" value="CURSA(&lt;font color=&quot;#ff0000&quot;&gt;&lt;i&gt;codAlumno, codModulo&lt;/i&gt;&lt;/font&gt;)" style="text;html=1;strokeColor=none;fillColor=none;align=center;verticalAlign=middle;whiteSpace=wrap;rounded=0;" parent="1" vertex="1">
          <mxGeometry x="60" y="290" width="190" height="30" as="geometry" />
        </mxCell>
        <mxCell id="h4uUW1XpscnIHp1KI2hc-11" value="En este caso, como la interrelación es obligatoria para ambas entidades, se propagará una clave a cualquier entidad. Se hará esto en vez de colocar ambas claves en las 2 relaciones para no tener problemas de redundancia.&amp;nbsp;" style="text;html=1;strokeColor=none;fillColor=none;align=center;verticalAlign=middle;whiteSpace=wrap;rounded=0;" parent="1" vertex="1">
          <mxGeometry x="460" y="85" width="350" height="30" as="geometry" />
        </mxCell>
        <mxCell id="UUTQB9R0SW_KmMfY996y-2" value="MODULO(&lt;font color=&quot;#ff1919&quot;&gt;&lt;u&gt;codModulo&lt;/u&gt;&lt;/font&gt;)" style="text;html=1;strokeColor=none;fillColor=none;align=center;verticalAlign=middle;whiteSpace=wrap;rounded=0;" parent="1" vertex="1">
          <mxGeometry x="100" y="350" width="60" height="30" as="geometry" />
        </mxCell>
        <mxCell id="UUTQB9R0SW_KmMfY996y-6" value="" style="rounded=0;whiteSpace=wrap;html=1;fillColor=#ffe6cc;strokeColor=#d79b00;" parent="1" vertex="1">
          <mxGeometry x="30" y="425" width="410" height="160" as="geometry" />
        </mxCell>
        <mxCell id="UUTQB9R0SW_KmMfY996y-7" value="EMPLEADO(&lt;font color=&quot;#ff0000&quot;&gt;&lt;u&gt;codEmpleado, &lt;/u&gt;&lt;i style=&quot;&quot;&gt;codDespacho&lt;/i&gt;&lt;/font&gt;)" style="text;html=1;strokeColor=none;fillColor=none;align=center;verticalAlign=middle;whiteSpace=wrap;rounded=0;" parent="1" vertex="1">
          <mxGeometry x="80" y="450" width="260" height="30" as="geometry" />
        </mxCell>
        <mxCell id="UUTQB9R0SW_KmMfY996y-8" value="DESPACHO(&lt;font color=&quot;#ff0000&quot;&gt;&lt;u&gt;codDespacho&lt;/u&gt;&lt;/font&gt;)" style="text;html=1;strokeColor=none;fillColor=none;align=center;verticalAlign=middle;whiteSpace=wrap;rounded=0;" parent="1" vertex="1">
          <mxGeometry x="60" y="510" width="250" height="30" as="geometry" />
        </mxCell>
        <mxCell id="UUTQB9R0SW_KmMfY996y-10" value="Esta cardinalidad es 1:1 por lo que he elegido la elección de propagar la clave a la entidad &quot;EMPLEADO&quot; para evitar valores NULL (Puede haber algún despacho sin empleado pero no al revés, por lo tanto empleado es la entidad obligatoria.)" style="text;html=1;strokeColor=none;fillColor=none;align=center;verticalAlign=middle;whiteSpace=wrap;rounded=0;" parent="1" vertex="1">
          <mxGeometry x="470" y="480" width="350" height="30" as="geometry" />
        </mxCell>
        <mxCell id="UUTQB9R0SW_KmMfY996y-11" value="" style="rounded=0;whiteSpace=wrap;html=1;fillColor=#ffe6cc;strokeColor=#d79b00;" parent="1" vertex="1">
          <mxGeometry x="30" y="620" width="410" height="160" as="geometry" />
        </mxCell>
        <mxCell id="UUTQB9R0SW_KmMfY996y-12" value="RANA(&lt;font color=&quot;#ff0000&quot;&gt;&lt;u&gt;idRana&lt;/u&gt;&lt;/font&gt;)" style="text;html=1;strokeColor=none;fillColor=none;align=center;verticalAlign=middle;whiteSpace=wrap;rounded=0;" parent="1" vertex="1">
          <mxGeometry x="50" y="640" width="270" height="30" as="geometry" />
        </mxCell>
        <mxCell id="UUTQB9R0SW_KmMfY996y-13" value="INSECTO(&lt;font color=&quot;#ff0000&quot;&gt;&lt;u&gt;idInsecto,&lt;/u&gt;&lt;i style=&quot;&quot;&gt; idRana&lt;/i&gt;&lt;/font&gt;)" style="text;html=1;strokeColor=none;fillColor=none;align=center;verticalAlign=middle;whiteSpace=wrap;rounded=0;" parent="1" vertex="1">
          <mxGeometry x="90" y="700" width="220" height="30" as="geometry" />
        </mxCell>
        <mxCell id="UUTQB9R0SW_KmMfY996y-14" value="Para este caso (cardinalidad 1:N), he elegido el método de propagación de clave en vez de crear una nueva relación porque no hay muchas ocurrencias con valor NULL, no se prevé que pase a ser N:M ni es una interrelación reflexiva." style="text;html=1;strokeColor=none;fillColor=none;align=center;verticalAlign=middle;whiteSpace=wrap;rounded=0;" parent="1" vertex="1">
          <mxGeometry x="460" y="680" width="350" height="30" as="geometry" />
        </mxCell>
        <mxCell id="UUTQB9R0SW_KmMfY996y-15" value="" style="rounded=0;whiteSpace=wrap;html=1;fillColor=#ffe6cc;strokeColor=#d79b00;" parent="1" vertex="1">
          <mxGeometry x="30" y="830" width="410" height="160" as="geometry" />
        </mxCell>
        <mxCell id="UUTQB9R0SW_KmMfY996y-16" value="PEREGRINO(&lt;font color=&quot;#ff1919&quot;&gt;&lt;u&gt;idPeregrino&lt;/u&gt;&lt;/font&gt;)" style="text;html=1;strokeColor=none;fillColor=none;align=center;verticalAlign=middle;whiteSpace=wrap;rounded=0;" parent="1" vertex="1">
          <mxGeometry x="110" y="840" width="220" height="30" as="geometry" />
        </mxCell>
        <mxCell id="UUTQB9R0SW_KmMfY996y-17" value="RECORRE(&lt;font color=&quot;#ff1919&quot;&gt;&lt;i style=&quot;&quot;&gt;idPeregrino, idCamino&lt;/i&gt;&lt;/font&gt;)" style="text;html=1;strokeColor=none;fillColor=none;align=center;verticalAlign=middle;whiteSpace=wrap;rounded=0;" parent="1" vertex="1">
          <mxGeometry x="110" y="890" width="220" height="30" as="geometry" />
        </mxCell>
        <mxCell id="UUTQB9R0SW_KmMfY996y-18" value="CAMINO(&lt;font color=&quot;#ff1919&quot;&gt;&lt;u&gt;idCamino&lt;/u&gt;&lt;/font&gt;)" style="text;html=1;strokeColor=none;fillColor=none;align=center;verticalAlign=middle;whiteSpace=wrap;rounded=0;" parent="1" vertex="1">
          <mxGeometry x="110" y="950" width="220" height="30" as="geometry" />
        </mxCell>
        <mxCell id="UUTQB9R0SW_KmMfY996y-19" value="" style="endArrow=classic;html=1;rounded=0;" parent="1" source="UUTQB9R0SW_KmMfY996y-11" edge="1">
          <mxGeometry width="50" height="50" relative="1" as="geometry">
            <mxPoint x="390" y="800" as="sourcePoint" />
            <mxPoint x="440" y="750" as="targetPoint" />
          </mxGeometry>
        </mxCell>
        <mxCell id="gAN25m0yJiHmK33N9cMg-1" value="" style="endArrow=classic;html=1;rounded=0;exitX=0.814;exitY=1.04;exitDx=0;exitDy=0;exitPerimeter=0;entryX=0;entryY=0;entryDx=0;entryDy=0;" edge="1" parent="1" source="h4uUW1XpscnIHp1KI2hc-1" target="h4uUW1XpscnIHp1KI2hc-3">
          <mxGeometry width="50" height="50" relative="1" as="geometry">
            <mxPoint x="390" y="180" as="sourcePoint" />
            <mxPoint x="440" y="130" as="targetPoint" />
            <Array as="points">
              <mxPoint x="234" y="100" />
              <mxPoint x="80" y="100" />
            </Array>
          </mxGeometry>
        </mxCell>
        <mxCell id="gAN25m0yJiHmK33N9cMg-2" value="" style="endArrow=classic;html=1;rounded=0;exitX=0.419;exitY=0.013;exitDx=0;exitDy=0;exitPerimeter=0;entryX=0.338;entryY=0.933;entryDx=0;entryDy=0;entryPerimeter=0;" edge="1" parent="1" source="h4uUW1XpscnIHp1KI2hc-10" target="h4uUW1XpscnIHp1KI2hc-9">
          <mxGeometry width="50" height="50" relative="1" as="geometry">
            <mxPoint x="390" y="340" as="sourcePoint" />
            <mxPoint x="440" y="290" as="targetPoint" />
            <Array as="points">
              <mxPoint x="80" y="290" />
            </Array>
          </mxGeometry>
        </mxCell>
        <mxCell id="gAN25m0yJiHmK33N9cMg-3" value="" style="endArrow=classic;html=1;rounded=0;exitX=0.75;exitY=1;exitDx=0;exitDy=0;entryX=0;entryY=0.25;entryDx=0;entryDy=0;" edge="1" parent="1" source="h4uUW1XpscnIHp1KI2hc-10" target="UUTQB9R0SW_KmMfY996y-2">
          <mxGeometry width="50" height="50" relative="1" as="geometry">
            <mxPoint x="390" y="340" as="sourcePoint" />
            <mxPoint x="440" y="290" as="targetPoint" />
            <Array as="points">
              <mxPoint x="203" y="340" />
              <mxPoint x="100" y="340" />
            </Array>
          </mxGeometry>
        </mxCell>
        <mxCell id="gAN25m0yJiHmK33N9cMg-4" value="" style="endArrow=classic;html=1;rounded=0;exitX=0.75;exitY=1;exitDx=0;exitDy=0;entryX=0.319;entryY=0.067;entryDx=0;entryDy=0;entryPerimeter=0;" edge="1" parent="1" source="UUTQB9R0SW_KmMfY996y-7" target="UUTQB9R0SW_KmMfY996y-8">
          <mxGeometry width="50" height="50" relative="1" as="geometry">
            <mxPoint x="390" y="500" as="sourcePoint" />
            <mxPoint x="440" y="450" as="targetPoint" />
            <Array as="points">
              <mxPoint x="275" y="500" />
              <mxPoint x="140" y="500" />
            </Array>
          </mxGeometry>
        </mxCell>
        <mxCell id="gAN25m0yJiHmK33N9cMg-5" value="" style="endArrow=classic;html=1;rounded=0;exitX=0.75;exitY=0;exitDx=0;exitDy=0;entryX=0.404;entryY=0.96;entryDx=0;entryDy=0;entryPerimeter=0;" edge="1" parent="1" source="UUTQB9R0SW_KmMfY996y-13" target="UUTQB9R0SW_KmMfY996y-12">
          <mxGeometry width="50" height="50" relative="1" as="geometry">
            <mxPoint x="390" y="580" as="sourcePoint" />
            <mxPoint x="440" y="530" as="targetPoint" />
            <Array as="points">
              <mxPoint x="255" y="680" />
              <mxPoint x="160" y="680" />
            </Array>
          </mxGeometry>
        </mxCell>
        <mxCell id="gAN25m0yJiHmK33N9cMg-6" value="" style="endArrow=classic;html=1;rounded=0;exitX=0.5;exitY=0;exitDx=0;exitDy=0;entryX=0.343;entryY=1.04;entryDx=0;entryDy=0;entryPerimeter=0;" edge="1" parent="1" source="UUTQB9R0SW_KmMfY996y-17" target="UUTQB9R0SW_KmMfY996y-16">
          <mxGeometry width="50" height="50" relative="1" as="geometry">
            <mxPoint x="390" y="900" as="sourcePoint" />
            <mxPoint x="440" y="850" as="targetPoint" />
            <Array as="points">
              <mxPoint x="185" y="890" />
            </Array>
          </mxGeometry>
        </mxCell>
        <mxCell id="gAN25m0yJiHmK33N9cMg-8" value="" style="endArrow=classic;html=1;rounded=0;exitX=0.75;exitY=1;exitDx=0;exitDy=0;entryX=0.583;entryY=-0.04;entryDx=0;entryDy=0;entryPerimeter=0;" edge="1" parent="1" source="UUTQB9R0SW_KmMfY996y-17" target="UUTQB9R0SW_KmMfY996y-18">
          <mxGeometry width="50" height="50" relative="1" as="geometry">
            <mxPoint x="390" y="900" as="sourcePoint" />
            <mxPoint x="250" y="950" as="targetPoint" />
            <Array as="points">
              <mxPoint x="275" y="940" />
              <mxPoint x="240" y="940" />
            </Array>
          </mxGeometry>
        </mxCell>
      </root>
    </mxGraphModel>
  </diagram>
</mxfile>
